<svg width="32" height="32" viewBox="0 0 32 32" fill="none" xmlns="http://www.w3.org/2000/svg">
<path d="M13 1.44338C14.547 0.550211 16.453 0.550212 18 1.44338L26.4234 6.30662C27.9704 7.19979 28.9234 8.85042 28.9234 10.6368V20.3632C28.9234 22.1496 27.9704 23.8002 26.4234 24.6934L18 29.5566C16.453 30.4498 14.547 30.4498 13 29.5566L4.57661 24.6934C3.0296 23.8002 2.07661 22.1496 2.07661 20.3632V10.6368C2.07661 8.85042 3.0296 7.19979 4.57661 6.30662L13 1.44338Z" fill="#848BA2"/>
<path d="M14.028 6.8H16.966L16.472 19.254H14.496L14.028 6.8ZM15.51 25.156C15.0247 25.156 14.6173 25 14.288 24.688C13.9587 24.3587 13.794 23.96 13.794 23.492C13.794 23.024 13.9587 22.634 14.288 22.322C14.6173 21.9927 15.0247 21.828 15.51 21.828C15.9953 21.828 16.394 21.9927 16.706 22.322C17.018 22.634 17.174 23.024 17.174 23.492C17.174 23.96 17.0093 24.3587 16.68 24.688C16.368 25 15.978 25.156 15.51 25.156Z" fill="white"/>
</svg>
