<svg width="32" height="32" viewBox="0 0 32 32" fill="none" xmlns="http://www.w3.org/2000/svg">
<g clip-path="url(#clip0_24_72)">
<path d="M17 7C17 5.34315 18.3431 4 20 4H29C30.6569 4 32 5.34315 32 7V26C32 27.6569 30.6569 29 29 29H20C18.3431 29 17 27.6569 17 26V7Z" fill="#9AA3D6"/>
<path d="M0 7.80556C0 5.94362 1.28471 4.32791 3.09878 3.9084L15.0988 1.13339C17.6057 0.553658 20 2.45745 20 5.03054V26.9694C20 29.5425 17.6057 31.4463 15.0988 30.8666L3.09879 28.0916C1.28472 27.6721 0 26.0564 0 24.1944V7.80556Z" fill="#3547AC"/>
<circle cx="14.5" cy="16.5" r="2.5" fill="white"/>
</g>
<defs>
<clipPath id="clip0_24_72">
<rect width="32" height="32" fill="white"/>
</clipPath>
</defs>
</svg>
