<svg width="32" height="32" viewBox="0 0 32 32" fill="none" xmlns="http://www.w3.org/2000/svg">
<path d="M32 16C32 24.8366 24.8526 32 16.0358 32C13.128 32 10.4018 31.2208 8.05364 29.8595C6.6583 29.0505 1.8928 30.8571 0.0715068 29.1429C-0.498604 27.4286 2.54744 24.6779 1.8928 23.4286C0.729635 21.2087 0.0715226 18.6814 0.0715226 16C0.0715226 7.16344 7.21896 0 16.0358 0C24.8526 0 32 7.16344 32 16Z" fill="#848BA2"/>
<rect x="24" y="11" width="4" height="15" rx="2" transform="rotate(90 24 11)" fill="white"/>
<rect opacity="0.5" x="19" y="18" width="4" height="10" rx="2" transform="rotate(90 19 18)" fill="white"/>
</svg>
