<svg width="32" height="32" viewBox="0 0 32 32" fill="none" xmlns="http://www.w3.org/2000/svg">
<path d="M15.9999 0C7.16359 0 0 7.16339 0 15.9997C0 24.837 7.16359 32 15.9999 32C24.8366 32 31.9998 24.837 31.9998 15.9997C31.9998 7.16396 24.837 0.000763653 15.9997 0.000763653L15.9999 0ZM23.3374 23.0762C23.05 23.5475 22.4359 23.6952 21.9661 23.408C18.2089 21.1117 13.4798 20.593 7.91043 21.8652C7.37375 21.9883 6.83878 21.6518 6.71651 21.1153C6.59365 20.5786 6.92858 20.0437 7.4666 19.9214C13.5614 18.528 18.7894 19.1277 23.0066 21.7047C23.4766 21.9933 23.6257 22.6066 23.3372 23.0766L23.3374 23.0762ZM25.2957 18.7202C24.9339 19.3073 24.1662 19.4915 23.5798 19.131C19.28 16.4879 12.7234 15.7223 7.63646 17.2664C6.97672 17.4657 6.27993 17.0939 6.0797 16.4353C5.881 15.7756 6.253 15.0801 6.91158 14.8795C12.7223 13.1164 19.9459 13.9705 24.8847 17.0055C25.4713 17.3666 25.6566 18.1346 25.2955 18.7204L25.2957 18.7202ZM25.4638 14.1837C20.3064 11.1208 11.7993 10.8392 6.87583 12.3335C6.08524 12.5732 5.24916 12.1269 5.00957 11.3363C4.76998 10.5453 5.21592 9.70983 6.00709 9.46948C11.6588 7.75377 21.0542 8.08525 26.9912 11.6097C27.7023 12.0318 27.9356 12.9502 27.5141 13.6604C27.0938 14.3715 26.1729 14.6059 25.464 14.1837H25.4638Z" fill="#2EBD59"/>
</svg>
