<svg width="32" height="32" viewBox="0 0 32 32" fill="none" xmlns="http://www.w3.org/2000/svg">
<g clip-path="url(#clip0_24_66)">
<path d="M13.1206 2.74733C13.8138 -0.321413 18.1862 -0.321412 18.8794 2.74733V2.74733C19.3287 4.73618 21.611 5.68155 23.335 4.59288V4.59288C25.9951 2.91311 29.0869 6.00493 27.4071 8.665V8.665C26.3185 10.389 27.2638 12.6713 29.2527 13.1206V13.1206C32.3214 13.8138 32.3214 18.1862 29.2527 18.8794V18.8794C27.2638 19.3287 26.3185 21.611 27.4071 23.335V23.335C29.0869 25.9951 25.9951 29.0869 23.335 27.4071V27.4071C21.611 26.3185 19.3287 27.2638 18.8794 29.2527V29.2527C18.1862 32.3214 13.8138 32.3214 13.1206 29.2527V29.2527C12.6713 27.2638 10.389 26.3185 8.665 27.4071V27.4071C6.00493 29.0869 2.91311 25.9951 4.59288 23.335V23.335C5.68155 21.611 4.73618 19.3287 2.74733 18.8794V18.8794C-0.321413 18.1862 -0.321412 13.8138 2.74733 13.1206V13.1206C4.73618 12.6713 5.68155 10.389 4.59288 8.665V8.665C2.91311 6.00493 6.00493 2.91311 8.665 4.59288V4.59288C10.389 5.68155 12.6713 4.73618 13.1206 2.74733V2.74733Z" fill="#3547AC"/>
<circle cx="16" cy="16" r="4" fill="white"/>
</g>
<defs>
<clipPath id="clip0_24_66">
<rect width="32" height="32" fill="white"/>
</clipPath>
</defs>
</svg>
